<?xml version="1.0" encoding="UTF-8"?>
<svg width="3849px" height="976px" viewBox="0 0 3849 976" version="1.1" xmlns="http://www.w3.org/2000/svg" xmlns:xlink="http://www.w3.org/1999/xlink">
    <title>Background 4k</title>
    <defs>
        <path d="M0,0 L3849,0 L3849,879.830335 C2886,943.943445 2244.5,976 1924.5,976 C1604.5,976 963,943.943445 0,879.830335 L0,0 Z" id="path-1"></path>
        <filter x="-0.6%" y="-2.3%" width="101.2%" height="104.6%" filterUnits="objectBoundingBox" id="filter-3">
            <feGaussianBlur stdDeviation="15" in="SourceAlpha" result="shadowBlurInner1"></feGaussianBlur>
            <feOffset dx="15" dy="15" in="shadowBlurInner1" result="shadowOffsetInner1"></feOffset>
            <feComposite in="shadowOffsetInner1" in2="SourceAlpha" operator="arithmetic" k2="-1" k3="1" result="shadowInnerInner1"></feComposite>
            <feColorMatrix values="0 0 0 0 0   0 0 0 0 0   0 0 0 0 0  0 0 0 0.02 0" type="matrix" in="shadowInnerInner1"></feColorMatrix>
        </filter>
        <linearGradient x1="50%" y1="0%" x2="50%" y2="100%" id="linearGradient-4">
            <stop stop-color="#FFFFFF" stop-opacity="0" offset="0%"></stop>
            <stop stop-color="#FFFFFF" offset="100%"></stop>
        </linearGradient>
        <linearGradient x1="50%" y1="0%" x2="50%" y2="76.3032025%" id="linearGradient-5">
            <stop stop-color="#95EBF1" offset="0%"></stop>
            <stop stop-color="#F5F9F8" offset="100%"></stop>
        </linearGradient>
        <path d="M9.09494702e-13,1059.80017 C639.954217,1059.80017 1279.90843,1059.80017 1919.86265,1059.80017 C2559.81687,1059.80017 3202.86265,1059.80017 3849,1059.80017 L3849,1.13686838e-13 L9.09494702e-13,1.13686838e-13 L9.09494702e-13,1059.80017 Z" id="path-6"></path>
        <linearGradient x1="48.0173083%" y1="2.44327723%" x2="50%" y2="50%" id="linearGradient-7">
            <stop stop-color="#000000" stop-opacity="0.2" offset="0%"></stop>
            <stop stop-color="#000000" stop-opacity="0" offset="100%"></stop>
        </linearGradient>
    </defs>
    <g id="Background-4k" stroke="none" stroke-width="1" fill="none" fill-rule="evenodd">
        <mask id="mask-2" fill="white">
            <use xlink:href="#path-1"></use>
        </mask>
        <g id="Rectangle-Copy">
            <use fill="#F5F9F8" fill-rule="evenodd" xlink:href="#path-1"></use>
            <use fill="black" fill-opacity="1" filter="url(#filter-3)" xlink:href="#path-1"></use>
        </g>
        <g id="Path-Copy-10" fill-rule="nonzero" mask="url(#mask-2)">
            <use fill="#FFFFFF" xlink:href="#path-6"></use>
            <use fill="#C4F6FF" xlink:href="#path-6"></use>
            <use fill="url(#linearGradient-4)" xlink:href="#path-6"></use>
            <use fill="url(#linearGradient-5)" xlink:href="#path-6"></use>
        </g>
        <g id="Component/Sync/Success" mask="url(#mask-2)">
            <g transform="translate(0.000000, 264.595845)">
                <g id="las-palmas" transform="translate(2367.908973, 315.926486)">
                    <path d="M86.2540909,0.40934699 C79.6485692,4.76858547 70.3820084,14.8944261 70.8308833,37.2827879 L70.033893,37.9574167 L77.0077646,49.988368 L78.5542561,49.988368 L84.2397289,39.4250227 L83.9717254,37.2332268 C83.4960089,22.4653078 87.1303673,10.3852226 89.8500451,3.52955856 C90.7601832,1.23479526 88.2750601,-0.924529568 86.2540909,0.40934699 Z" id="Path" fill="#00D4A9" fill-rule="nonzero"></path>
                    <path d="M88.0338541,2.52243827 C88.6241398,1.90419983 89.3378185,1.62605661 90.0435767,1.60170306 C89.4962285,0.258839591 87.8391766,-0.526882942 86.4080673,0.408806208 C79.7398402,4.76809223 70.3853131,14.8940433 70.838449,37.2826493 L70.033893,37.9572855 L77.0739667,49.988368 L78.6351389,49.988368 L79.2195884,48.9121119 C73.3450788,23.561772 81.4665092,9.40124892 88.0338541,2.52243827 Z" id="Path" fill="#000000" fill-rule="nonzero" opacity="0.0597454253"></path>
                    <path d="M11.2599548,16.5134293 C9.58188009,16.940028 9.58898526,19.353056 11.266224,19.7834561 C18.3584405,21.6030473 30.2215717,25.7951186 42.6581321,35.176066 L43.1500608,36.4541726 L64.8396462,43.9897638 L73.5769192,43.9897638 L74.0349938,43.5944209 L74.0358297,43.5830168 C68.0039558,29.7092672 51.5696908,6.26914757 11.2599548,16.5134293 L11.2599548,16.5134293 Z" id="Path" fill="#00D4A9" fill-rule="nonzero"></path>
                    <path d="M10.0048419,18.8375455 C10.1949592,19.2780144 10.5593855,19.6441241 11.1047768,19.7893433 C18.1640797,21.6736929 29.9721564,26.014958 42.3510011,35.7297689 L42.8406469,37.0533626 L62.0300195,43.9897638 C55.2149155,30.8338716 40.39533,14.0265052 10.0048419,18.8375455 Z" id="Path" fill="#000000" fill-rule="nonzero" opacity="0.102183751"></path>
                    <path d="M142.906154,16.5278233 C102.357431,6.1636977 85.9760161,30.0813678 80.0387348,43.9893394 L80.0387348,43.9897638 L80.0395704,43.9893394 L82.9643456,43.9897638 L89.9218099,43.9897638 L108.571273,36.4742128 L109.15698,35.5115296 C118.026139,25.8261211 133.816416,21.4100027 142.818006,19.5958456 C144.436847,19.2694332 144.505778,16.9365817 142.906154,16.5278233 Z" id="Path" fill="#00D4A9" fill-rule="nonzero"></path>
                    <path d="M91.1391727,43.499084 C97.9911968,30.684955 112.944828,14.2594903 143.701438,19.0805469 C144.375736,18.2753396 144.131334,16.8402285 142.90849,16.5278233 C102.35826,6.1636977 85.9762366,30.0813678 80.0387348,43.9893394 L80.0387348,43.9897638 L80.0395704,43.9893394 L82.9644543,43.9897638 L89.922177,43.9897638 L91.1391727,43.499084 Z" id="Path" fill="#FFFFFF" fill-rule="nonzero" opacity="0.231293451"></path>
                    <path d="M66.0319563,43.5488817 L66.0285672,43.5389253 C52.8223883,35.6255974 27.6915051,27.5372015 0.482302945,55.1759768 C-0.773330416,56.451236 0.630149113,58.5068344 2.31661214,57.8654711 C11.8457001,54.2413122 29.5453012,49.5663297 47.4287567,55.5626201 L50.5199702,55.6372938 L62.3756231,51.7866249 L66.0319563,44.6055132 L66.0289909,43.5497114 C66.0294145,43.5497114 66.0306854,43.5492966 66.0319563,43.5488817 L66.0319563,43.5488817 Z" id="Path" fill="#00D4A9" fill-rule="nonzero"></path>
                    <path d="M62.0266243,51.5660399 C49.7142242,44.1706919 27.0556903,36.6286951 2.00096837,57.9865069 C2.04510644,57.9731752 2.0879713,57.9656761 2.13253378,57.9485948 C11.6790895,54.3090387 29.4111355,49.6141947 47.3273731,55.6359602 L50.424253,55.7109511 L62.0278975,51.9330785 L62.0270487,51.576872 C62.0278975,51.5764553 62.0291707,51.5756221 62.0300195,51.5752055 L62.0266243,51.5660399 Z" id="Path" fill="#000000" fill-rule="nonzero" opacity="0.125458"></path>
                    <path d="M69.5998527,59.5968513 L62.0910841,52.1470678 L61.2023962,51.9986571 L61.1908047,51.9879027 C45.2609672,54.2398728 23.420282,64.239308 18.0370659,101.119135 C17.7099257,103.360351 20.286262,104.843597 22.0361614,103.409821 C31.8091521,95.4020995 54.6454253,76.3010058 70.033893,60.3354631 L69.5998527,59.5968513 Z" id="Path" fill="#00D4A9" fill-rule="nonzero"></path>
                    <path d="M66.0319563,56.232877 L61.9290742,52.1470678 L61.0436524,51.9986571 L61.0321034,51.9879027 C45.1608107,54.2398728 23.4003936,64.239308 18.0369617,101.119135 C17.7110238,103.360351 20.2778916,104.843597 22.0213598,103.409821 C23.9543169,101.820322 26.4056948,99.7881714 29.2043977,97.4355402 C35.4156102,69.5872529 52.0012287,59.5525432 66.0319563,56.232877 L66.0319563,56.232877 Z" id="Path" fill="#FFFFFF" fill-rule="nonzero" opacity="0.264508929"></path>
                    <path d="M151.49051,53.2711149 C125.132645,28.0672877 100.931818,35.7458731 88.0442915,43.339819 C88.0442915,43.339819 88.0426083,43.3463297 88.0426083,43.3479574 C88.0426083,43.3483643 88.0438707,43.3483643 88.0442915,43.3487712 L88.0426083,44.013272 L92.0372954,52.1179029 L109.015873,57.9865069 L110.581682,57.2544573 C125.07794,49.5689543 140.174264,52.8210611 149.427731,56.3213892 C151.37563,57.0583218 152.977629,54.6933012 151.49051,53.2711149 L151.49051,53.2711149 Z" id="Path" fill="#00D4A9" fill-rule="nonzero"></path>
                    <path d="M93.0649243,53.5781431 C93.0645034,53.5777454 93.0636618,53.5773478 93.063241,53.5773478 C93.0636618,53.575757 93.0649243,53.569394 93.0649243,53.569394 C104.925753,46.7391146 126.369591,39.8404329 150.25873,57.9865069 C151.780363,57.9097532 152.758316,56.0628934 151.490849,54.8785806 C125.132843,30.2466244 100.931887,37.7509838 88.0442916,45.1726243 C88.0442916,45.1726243 88.0426083,45.1789873 88.0426083,45.180578 C88.0426083,45.1809757 88.0438708,45.1809757 88.0442916,45.1813734 L88.0426083,45.8307968 L92.0373168,53.7515348 L93.063241,54.0983181 L93.0649243,53.5781431 Z" id="Path" fill="#000000" fill-rule="nonzero" opacity="0.061996"></path>
                    <path d="M136.026354,100.091842 C130.61298,64.1571284 109.109237,54.2661867 93.2982654,51.9879027 L93.2687426,52.0091079 L92.1746865,52.480711 L86.9838032,58.7642284 L86.04164,60.0378112 C98.2491152,83.6213583 120.557248,97.8674188 131.046837,103.556767 C133.510068,104.892693 136.440957,102.844697 136.026354,100.091842 L136.026354,100.091842 Z" id="Path" fill="#00D4A9" fill-rule="nonzero"></path>
                    <path d="M134.569379,92.6559975 C134.247193,92.5908855 133.925007,92.4778846 133.610094,92.3090134 C123.85808,87.069806 103.894946,74.499825 91.3258353,53.9874374 L86.9838098,59.1934587 L86.04164,60.4549517 C98.2492008,83.814625 120.55749,97.9254505 131.047153,103.560791 C133.510401,104.884035 136.441311,102.855061 136.026277,100.128757 C135.626646,97.4982316 135.136307,95.0122126 134.569379,92.6559975 L134.569379,92.6559975 Z" id="Path" fill="#000000" fill-rule="nonzero" opacity="0.096516"></path>
                    <path d="M83.9215051,212.112566 L182.875846,212.112566 L199.456278,233.51198 C368.234737,229.736494 468.923871,228.851987 501.523679,230.858457 C550.42339,233.868164 481.943905,170.224279 402.030277,154.369487 C367.645216,147.547521 344.894858,154.367917 326.528582,143.900362 C308.208285,133.459013 282.077952,125.313008 248.137584,119.462346 C248.137584,117.04492 186.018575,115.798828 183.589223,115.985682 C170.700084,116.977928 146.223708,120.382178 122.783979,132.003423 L103.514797,143.900362 C97.7817127,148.283928 92.3643309,153.34484 87.4909153,159.189455 C82.9231128,164.66787 76.656572,168.487119 69.7077615,170.224279 C56.6160007,173.497147 34.4806972,183.767871 20.0096837,215.94975 L82.5288004,215.94975 L83.9215051,212.112566 Z" id="Path" fill="#FFD578" fill-rule="nonzero"></path>
                    <path d="M89.9971953,187.41111 C96.9460058,185.67395 103.212547,181.854701 107.780349,176.376286 C112.653344,170.531671 118.071146,165.470759 123.80423,161.087193 L143.072992,149.190254 C158.904341,141.341127 167.787097,134.144322 180.674555,132.003423 C210.866761,128.688354 233.244349,129.721474 247.807319,135.102784 C315.024437,159.940858 346.3402,149.607843 340.691563,148.910111 C330.111861,147.603284 294.944353,115.967335 241.045875,115.967335 C235.935132,115.967335 223.785308,107.974875 183.589223,110.986625 C160.032671,112.751634 146.223708,120.382178 122.783979,132.003423 L103.514797,143.900362 C97.7817127,148.283928 92.3643309,153.34484 87.4909153,159.189455 C82.9231128,164.66787 76.656572,168.487119 69.7077615,170.224279 C56.6160007,173.497147 34.4806972,183.767871 20.0096837,215.94975 L50.0430061,215.94975 C63.4836787,197.032015 79.5949983,190.011637 89.9971953,187.41111 Z" id="Path" fill="#F7CA6D" fill-rule="nonzero"></path>
                    <path d="M188.091027,211.807721 L188.091027,175.779457 C185.970399,174.623592 183.555615,173.959521 180.985745,173.959521 C174.694662,173.959521 169.299958,177.885229 167.004438,183.475867 C166.095417,185.690015 163.690325,186.743548 161.499319,185.887768 C159.43727,185.082506 157.159871,184.724995 154.778801,184.932248 C151.75716,185.195199 148.98079,186.391219 146.720248,188.230154 C144.856692,189.746551 142.207593,189.746551 140.344037,188.230154 C138.083495,186.390787 135.307125,185.195199 132.285905,184.932248 C129.904835,184.724995 127.627436,185.082506 125.564966,185.887768 C123.37396,186.743548 120.969289,185.690015 120.059847,183.475867 C117.764327,177.885229 112.370044,173.959521 106.07854,173.959521 C99.7874572,173.959521 94.3927528,177.885229 92.0972325,183.475867 C91.1877901,185.690446 88.7831199,186.743548 86.5921139,185.887768 C84.5304863,185.082506 82.2535089,184.724995 79.8732816,184.931816 C72.4654139,185.576026 66.5207454,191.821236 66.06181,199.423518 C65.5169031,208.452821 72.5024996,215.94975 81.1974095,215.94975 L184.048265,215.94975 C186.280992,215.94975 188.091027,218.2373 188.091027,215.94975 L188.091027,211.807721 Z" id="Path" fill="#00D4A9" fill-rule="nonzero"></path>
                    <path d="M99.0584252,199.42378 C99.5118407,191.820988 105.379204,185.576145 112.691257,184.931929 C115.040698,184.725106 117.288224,185.08262 119.323186,185.887891 C120.240417,186.251018 121.194669,186.267426 122.059071,186.000586 C120.885182,185.638322 119.8781,184.751013 119.36104,183.475965 C117.095211,177.88527 111.770698,173.959521 105.56057,173.959521 C99.3508574,173.959521 94.0259291,177.88527 91.7600995,183.475965 C90.862836,185.690567 88.4888522,186.74368 86.3261851,185.887891 C84.291223,185.08262 82.0436964,184.725106 79.6942553,184.931929 C72.3822024,185.576145 66.5144234,191.821419 66.0614238,199.42378 C65.5235649,208.452744 72.4188084,215.94975 81.0012567,215.94975 L113.997842,215.94975 C105.41581,215.94975 98.5201503,208.452744 99.0584252,199.42378 L99.0584252,199.42378 Z" id="Path" fill="#00D4A9" fill-rule="nonzero"></path>
                    <path d="M112.691257,184.931929 C115.040698,184.725106 117.288224,185.08262 119.323186,185.887891 C120.240417,186.251018 121.194669,186.267426 122.059071,186.000586 C120.885182,185.638322 119.8781,184.751013 119.36104,183.475965 C117.095211,177.88527 111.770698,173.959521 105.56057,173.959521 C99.3508574,173.959521 94.0259291,177.88527 91.7600995,183.475965 C90.862836,185.690567 88.4888522,186.74368 86.3261851,185.887891 C84.291223,185.08262 82.0436964,184.725106 79.6942553,184.931929 C72.3822024,185.576145 66.5144234,191.821419 66.0614238,199.42378 C65.5235649,208.452744 72.4188084,215.94975 81.0012567,215.94975 L113.997842,215.94975 C105.41581,215.94975 98.5201503,208.452744 99.0584252,199.42378 C99.5118407,191.820988 105.379204,185.576145 112.691257,184.931929 Z" id="Path-Copy-9" fill="#000000" fill-rule="nonzero" opacity="0.170009795"></path>
                    <path d="M82.894841,59.4398584 L81.8277127,58.5679623 L76.3448808,53.9874374 L70.680599,58.6767905 L70.033893,59.405135 C74.0786605,85.123319 85.2511518,128.684673 115.833282,156.582386 C117.087359,157.726141 121.211817,159.962778 122.907887,159.962778 L150.548492,159.962778 C151.992055,159.962778 152.653652,156.476945 151.443563,155.689317 C137.86612,146.853058 96.3703501,115.840826 82.894841,59.4398584 Z" id="Path" fill="#CE775F" fill-rule="nonzero"></path>
                    <path d="M129.296449,158.303237 C98.1279059,129.562899 83.9845846,86.9353643 77.5945197,55.9869722 L72.6757961,60.1031584 L72.0348614,60.8328132 C76.043533,86.5972626 87.11632,130.236981 117.425533,158.18488 C118.668418,159.330693 120.291924,159.962778 121.972858,159.962778 L132.063913,159.962778 C131.049064,159.603889 130.10422,159.04774 129.296449,158.303237 Z" id="Path" fill="#C0694E" fill-rule="nonzero"></path>
                    <ellipse id="Oval" fill="#FFE07D" fill-rule="nonzero" cx="78.0377665" cy="63.985111" rx="8.00387348" ry="7.99813888"></ellipse>
                    <path d="M76.7037876,63.985111 C76.7037876,61.0264121 78.0468821,58.4491307 80.0387348,57.065717 C79.0567081,56.3835068 77.9201689,55.9869722 76.7037876,55.9869722 C73.0200559,55.9869722 70.033893,59.5678003 70.033893,63.985111 C70.033893,68.4024218 73.0200559,71.9832499 76.7037876,71.9832499 C77.9201689,71.9832499 79.0567081,71.5863277 80.0387348,70.9045051 C78.0472053,69.5210914 76.7037876,66.94381 76.7037876,63.985111 L76.7037876,63.985111 Z" id="Path" fill="#FFC250" fill-rule="nonzero"></path>
                    <path d="M85.7605769,41.9902291 C82.6387691,41.9902291 79.9208891,43.8666462 78.5087479,46.6365745 L78.0377665,47.51962 L78.0377665,54.4078107 L78.5087479,55.3396962 C79.9208891,58.1096245 82.6387691,59.9860416 85.7605769,59.9860416 C90.3362838,59.9860416 94.0455134,55.95761 94.0455134,50.9881354 C94.0455134,46.0186607 90.3362838,41.9902291 85.7605769,41.9902291 L85.7605769,41.9902291 Z" id="Path-2" fill="#FFE07D" fill-rule="nonzero"></path>
                    <path d="M83.4856433,50.9881354 C83.4856433,47.5422957 85.332691,44.5521512 88.0426083,43.0402901 C86.8444784,42.371792 85.478926,41.9902291 84.0273775,41.9902291 C80.7973289,41.9902291 77.9852133,43.8666462 76.5241096,46.6365745 L76.0367981,47.51962 L76.0367981,54.4078107 L76.5241096,55.3396962 C77.9852133,58.1096245 80.7973289,59.9860416 84.0273775,59.9860416 C85.478926,59.9860416 86.8444784,59.6040427 88.0426083,58.9359806 C85.3322756,57.4241196 83.4856433,54.433975 83.4856433,50.9881354 L83.4856433,50.9881354 Z" id="Path" fill="#FFC250" fill-rule="nonzero"></path>
                    <ellipse id="Oval-Copy-2" fill="#FFE07D" fill-rule="nonzero" cx="71.0343772" cy="50.9881354" rx="9.00435767" ry="8.99790624"></ellipse>
                    <path d="M70.033893,50.9881354 C70.033893,47.659599 71.6456064,44.7601574 74.0358297,43.203817 C72.8573977,42.4363306 71.4935506,41.9902291 70.033893,41.9902291 C65.613415,41.9902291 62.0300195,46.0186607 62.0300195,50.9881354 C62.0300195,55.95761 65.613415,59.9860416 70.033893,59.9860416 C71.4935506,59.9860416 72.8573977,59.539504 74.0358297,58.7724537 C71.6459943,57.2161133 70.033893,54.3166717 70.033893,50.9881354 L70.033893,50.9881354 Z" id="Path-Copy-11" fill="#FFC250" fill-rule="nonzero"></path>
                    <path d="M337.547574,215.32761 L349.139059,177.591678 C347.993274,176.952944 343.331156,166.511578 329.858639,166.511578 C316.386122,166.511578 315.128793,173.606291 310.869995,176.743926 C303.382308,182.260418 295.031123,179.018217 292.341295,177.943689 C289.809783,176.932592 287.013894,176.483697 284.09073,176.743926 C280.381157,177.074091 276.972696,178.575828 274.197501,180.884816 C271.909672,182.788823 268.657459,182.788823 266.36963,180.884816 C263.594435,178.575286 260.185974,177.074091 256.476919,176.743926 C253.553755,176.483697 250.757865,176.932592 248.225836,177.943689 C245.536008,179.018217 242.583871,177.695387 241.467377,174.915276 C238.64924,167.895605 232.026851,162.966439 224.302972,162.966439 C216.579611,162.966439 209.956705,167.895605 207.138568,174.915276 C206.022074,177.695929 203.069937,179.018217 200.380109,177.943689 C197.849115,176.932592 195.053742,176.483697 192.131613,176.743384 C183.03721,177.552261 175.73913,185.393822 175.17571,194.939338 C174.506745,206.276638 183.082739,215.689872 193.757202,215.689872 L320.023917,215.689872 C322.764965,215.689872 324.987087,218.562147 324.987087,215.689872 L337.547574,215.32761 Z" id="Path" fill="#00D4A9" fill-rule="nonzero" transform="translate(262.139059, 189.966439) scale(-1, 1) translate(-262.139059, -189.966439) "></path>
                </g>
                <g id="las-palmas-copy" transform="translate(1998.067762, 505.892924) scale(-1, 1) translate(-1998.067762, -505.892924) translate(1909.087492, 478.892924)"></g>
                <g id="strand">
                    <polygon id="Path" fill="#5ED8F6" fill-rule="nonzero" points="0.774292445 531.254096 3849 531.254096 3849 795.204327 0 795.204327"></polygon>
                    <g id="Group" transform="translate(0.000000, 549.429669)" fill="#26C8F0" fill-rule="nonzero">
                        <path d="M544.888097,31.9957442 L478.514596,31.9957442 C467.363222,31.9957442 467.363222,41.9934178 478.514596,41.9934178 L544.888097,41.9934178 C556.039471,41.9934178 556.039471,31.9957442 544.888097,31.9957442 Z" id="Path"></path>
                        <path d="M594.888097,66.9957442 L528.514596,66.9957442 C517.363222,66.9957442 517.363222,76.9934178 528.514596,76.9934178 L594.888097,76.9934178 C606.039471,76.9934178 606.039471,66.9957442 594.888097,66.9957442 Z" id="Path-Copy-37"></path>
                        <path d="M1062.8881,141.979909 L996.514596,141.979909 C985.363222,141.979909 985.363222,151.977582 996.514596,151.977582 L1062.8881,151.977582 C1074.03947,151.977582 1074.03947,141.979909 1062.8881,141.979909 Z" id="Path-Copy-16"></path>
                        <path d="M435.835805,0.00923732784 L369.462304,0.00923732784 C358.31093,0.00923732784 358.31093,10.0069109 369.462304,10.0069109 L435.835805,10.0069109 C446.987179,10.0069109 446.987179,0.00923732784 435.835805,0.00923732784 Z" id="Path-Copy-8"></path>
                        <path d="M1504.83581,49 L1438.4623,49 C1427.31093,49 1427.31093,58.9976736 1438.4623,58.9976736 L1504.83581,58.9976736 C1515.98718,58.9976736 1515.98718,49 1504.83581,49 Z" id="Path-Copy-18"></path>
                        <path d="M2863.83581,92 L2797.4623,92 C2786.31093,92 2786.31093,101.997674 2797.4623,101.997674 L2863.83581,101.997674 C2874.98718,101.997674 2874.98718,92 2863.83581,92 Z" id="Path-Copy-45"></path>
                        <path d="M2315.83581,54 L2249.4623,54 C2238.31093,54 2238.31093,63.9976736 2249.4623,63.9976736 L2315.83581,63.9976736 C2326.98718,63.9976736 2326.98718,54 2315.83581,54 Z" id="Path-Copy-33"></path>
                        <path d="M2220.83581,14 L2154.4623,14 C2143.31093,14 2143.31093,23.9976736 2154.4623,23.9976736 L2220.83581,23.9976736 C2231.98718,23.9976736 2231.98718,14 2220.83581,14 Z" id="Path-Copy-31"></path>
                        <path d="M3803.83581,0 L3737.4623,0 C3726.31093,0 3726.31093,9.9976736 3737.4623,9.9976736 L3803.83581,9.9976736 C3814.98718,9.9976736 3814.98718,0 3803.83581,0 Z" id="Path-Copy-52"></path>
                        <path d="M2822.83581,5 L2756.4623,5 C2745.31093,5 2745.31093,14.9976736 2756.4623,14.9976736 L2822.83581,14.9976736 C2833.98718,14.9976736 2833.98718,5 2822.83581,5 Z" id="Path-Copy-43"></path>
                        <path d="M1720.7972,58.9981148 L1606.50091,58.9981148 C1587.29806,58.9981148 1587.29806,68.9957884 1606.50091,68.9957884 L1720.7972,68.9957884 C1740.00005,68.9957884 1740.00005,58.9981148 1720.7972,58.9981148 Z" id="Path-Copy-29"></path>
                        <path d="M2959.7972,41.9981148 L2845.50091,41.9981148 C2826.29806,41.9981148 2826.29806,51.9957884 2845.50091,51.9957884 L2959.7972,51.9957884 C2979.00005,51.9957884 2979.00005,41.9981148 2959.7972,41.9981148 Z" id="Path-Copy-44"></path>
                        <path d="M2286.7972,106.998115 L2172.50091,106.998115 C2153.29806,106.998115 2153.29806,116.995788 2172.50091,116.995788 L2286.7972,116.995788 C2306.00005,116.995788 2306.00005,106.998115 2286.7972,106.998115 Z" id="Path-Copy-32"></path>
                        <path d="M2749.7972,54.9981148 L2635.50091,54.9981148 C2616.29806,54.9981148 2616.29806,64.9957884 2635.50091,64.9957884 L2749.7972,64.9957884 C2769.00005,64.9957884 2769.00005,54.9981148 2749.7972,54.9981148 Z" id="Path-Copy-42"></path>
                        <path d="M2504.7972,18.9981148 L2390.50091,18.9981148 C2371.29806,18.9981148 2371.29806,28.9957884 2390.50091,28.9957884 L2504.7972,28.9957884 C2524.00005,28.9957884 2524.00005,18.9981148 2504.7972,18.9981148 Z" id="Path-Copy-34"></path>
                        <path d="M208.737031,0.00830676824 L142.36353,0.00830676824 C131.212157,0.00830676824 131.212157,10.0059804 142.36353,10.0059804 L208.737031,10.0059804 C219.888405,10.0059804 219.888405,0.00830676824 208.737031,0.00830676824 Z" id="Path-Copy-6"></path>
                        <path d="M74.7370312,25.0083068 L8.3635303,25.0083068 C-2.78784343,25.0083068 -2.78784343,35.0059804 8.3635303,35.0059804 L74.7370312,35.0059804 C85.8884049,35.0059804 85.8884049,25.0083068 74.7370312,25.0083068 Z" id="Path-Copy-36"></path>
                        <path d="M1145.73703,5.00811825 L1079.36353,5.00811825 C1068.21216,5.00811825 1068.21216,15.0057919 1079.36353,15.0057919 L1145.73703,15.0057919 C1156.8884,15.0057919 1156.8884,5.00811825 1145.73703,5.00811825 Z" id="Path-Copy-17"></path>
                        <path d="M969.074024,10.0069109 L802.652105,10.0069109 C791.500731,10.0069109 791.500731,20.0045845 802.652105,20.0045845 L969.074024,20.0045845 C980.225398,20.0045845 980.225398,10.0069109 969.074024,10.0069109 Z" id="Path-Copy-3"></path>
                        <path d="M1646.44398,101.989567 L1507.28215,101.989567 C1497.95738,101.989567 1497.95738,111.987241 1507.28215,111.987241 L1646.44398,111.987241 C1655.76875,111.987241 1655.76875,101.989567 1646.44398,101.989567 Z" id="Path-Copy-21"></path>
                        <path d="M1293.81393,51.9989932 L1181.91219,51.9989932 C1174.41403,51.9989932 1174.41403,61.9966668 1181.91219,61.9966668 L1293.81393,61.9966668 C1301.31209,61.9966668 1301.31209,51.9989932 1293.81393,51.9989932 Z" id="Path-Copy-19"></path>
                        <path d="M1738.81393,144.981461 L1626.91219,144.981461 C1619.41403,144.981461 1619.41403,154.979135 1626.91219,154.979135 L1738.81393,154.979135 C1746.31209,154.979135 1746.31209,144.981461 1738.81393,144.981461 Z" id="Path-Copy-24"></path>
                        <path d="M1646.07402,0.00879609779 L1479.6521,0.00879609779 C1468.50073,0.00879609779 1468.50073,10.0064697 1479.6521,10.0064697 L1646.07402,10.0064697 C1657.2254,10.0064697 1657.2254,0.00879609779 1646.07402,0.00879609779 Z" id="Path-Copy-14"></path>
                        <path d="M1940.07402,14.0050258 L1773.6521,14.0050258 C1762.50073,14.0050258 1762.50073,24.0026994 1773.6521,24.0026994 L1940.07402,24.0026994 C1951.2254,24.0026994 1951.2254,14.0050258 1940.07402,14.0050258 Z" id="Path-Copy-28"></path>
                        <path d="M3189.07402,14.0050258 L3022.6521,14.0050258 C3011.50073,14.0050258 3011.50073,24.0026994 3022.6521,24.0026994 L3189.07402,24.0026994 C3200.2254,24.0026994 3200.2254,14.0050258 3189.07402,14.0050258 Z" id="Path-Copy-46"></path>
                        <path d="M2576.07402,68.0050258 L2409.6521,68.0050258 C2398.50073,68.0050258 2398.50073,78.0026994 2409.6521,78.0026994 L2576.07402,78.0026994 C2587.2254,78.0026994 2587.2254,68.0050258 2576.07402,68.0050258 Z" id="Path-Copy-39"></path>
                        <path d="M1034.10598,46.9985239 L967.73248,46.9985239 C956.581106,46.9985239 956.581106,56.9961975 967.73248,56.9961975 L1034.10598,56.9961975 C1045.25735,56.9961975 1045.25735,46.9985239 1034.10598,46.9985239 Z" id="Path-Copy-7"></path>
                        <path d="M3704.10598,34.9815573 L3637.73248,34.9815573 C3626.58111,34.9815573 3626.58111,44.9792309 3637.73248,44.9792309 L3704.10598,44.9792309 C3715.25735,44.9792309 3715.25735,34.9815573 3704.10598,34.9815573 Z" id="Path-Copy-25"></path>
                        <path d="M3467.10598,47.9815573 L3400.73248,47.9815573 C3389.58111,47.9815573 3389.58111,57.9792309 3400.73248,57.9792309 L3467.10598,57.9792309 C3478.25735,57.9792309 3478.25735,47.9815573 3467.10598,47.9815573 Z" id="Path-Copy-50"></path>
                        <path d="M1394.10598,96.989098 L1327.73248,96.989098 C1316.58111,96.989098 1316.58111,106.986772 1327.73248,106.986772 L1394.10598,106.986772 C1405.25735,106.986772 1405.25735,96.989098 1394.10598,96.989098 Z" id="Path-Copy-13"></path>
                        <path d="M1362.10598,9.00568751 L1295.73248,9.00568751 C1284.58111,9.00568751 1284.58111,19.0033611 1295.73248,19.0033611 L1362.10598,19.0033611 C1373.25735,19.0033611 1373.25735,9.00568751 1362.10598,9.00568751 Z" id="Path-Copy-22"></path>
                        <path d="M2119.10598,62.0056875 L2052.73248,62.0056875 C2041.58111,62.0056875 2041.58111,72.0033611 2052.73248,72.0033611 L2119.10598,72.0033611 C2130.25735,72.0033611 2130.25735,62.0056875 2119.10598,62.0056875 Z" id="Path-Copy-30"></path>
                        <path d="M2061.10598,111.98627 L1994.73248,111.98627 C1983.58111,111.98627 1983.58111,121.983944 1994.73248,121.983944 L2061.10598,121.983944 C2072.25735,121.983944 2072.25735,111.98627 2061.10598,111.98627 Z" id="Path-Copy-27"></path>
                        <path d="M2684.10598,4.98627027 L2617.73248,4.98627027 C2606.58111,4.98627027 2606.58111,14.9839439 2617.73248,14.9839439 L2684.10598,14.9839439 C2695.25735,14.9839439 2695.25735,4.98627027 2684.10598,4.98627027 Z" id="Path-Copy-40"></path>
                        <path d="M3287.10598,41.9862703 L3220.73248,41.9862703 C3209.58111,41.9862703 3209.58111,51.9839439 3220.73248,51.9839439 L3287.10598,51.9839439 C3298.25735,51.9839439 3298.25735,41.9862703 3287.10598,41.9862703 Z" id="Path-Copy-48"></path>
                        <path d="M3089.10598,71.9862703 L3022.73248,71.9862703 C3011.58111,71.9862703 3011.58111,81.9839439 3022.73248,81.9839439 L3089.10598,81.9839439 C3100.25735,81.9839439 3100.25735,71.9862703 3089.10598,71.9862703 Z" id="Path-Copy-47"></path>
                        <path d="M1973.10598,51.9862703 L1906.73248,51.9862703 C1895.58111,51.9862703 1895.58111,61.9839439 1906.73248,61.9839439 L1973.10598,61.9839439 C1984.25735,61.9839439 1984.25735,51.9862703 1973.10598,51.9862703 Z" id="Path-Copy-38"></path>
                        <path d="M3577.10598,8.98627027 L3510.73248,8.98627027 C3499.58111,8.98627027 3499.58111,18.9839439 3510.73248,18.9839439 L3577.10598,18.9839439 C3588.25735,18.9839439 3588.25735,8.98627027 3577.10598,8.98627027 Z" id="Path-Copy-51"></path>
                        <path d="M1452.10598,148.979295 L1385.73248,148.979295 C1374.58111,148.979295 1374.58111,158.976969 1385.73248,158.976969 L1452.10598,158.976969 C1463.25735,158.976969 1463.25735,148.979295 1452.10598,148.979295 Z" id="Path-Copy-23"></path>
                        <path d="M933.056594,89.9882997 L866.683093,89.9882997 C855.531719,89.9882997 855.531719,99.9859733 866.683093,99.9859733 L933.056594,99.9859733 C944.207967,99.9859733 944.207967,89.9882997 933.056594,89.9882997 Z" id="Path-Copy-4"></path>
                        <path d="M806.988808,47.9983354 L684.588192,47.9983354 C673.436819,47.9983354 673.436819,57.996009 684.588192,57.996009 L806.988808,57.996009 C818.140181,57.996009 818.140181,47.9983354 806.988808,47.9983354 Z" id="Path-Copy-5"></path>
                        <path d="M1907.98881,93.9896636 L1785.58819,93.9896636 C1774.43682,93.9896636 1774.43682,103.987337 1785.58819,103.987337 L1907.98881,103.987337 C1919.14018,103.987337 1919.14018,93.9896636 1907.98881,93.9896636 Z" id="Path-Copy-26"></path>
                        <path d="M3425.98881,3.98966357 L3303.58819,3.98966357 C3292.43682,3.98966357 3292.43682,13.9873372 3303.58819,13.9873372 L3425.98881,13.9873372 C3437.14018,13.9873372 3437.14018,3.98966357 3425.98881,3.98966357 Z" id="Path-Copy-49"></path>
                        <path d="M1278.98881,141.980615 L1156.58819,141.980615 C1145.43682,141.980615 1145.43682,151.978288 1156.58819,151.978288 L1278.98881,151.978288 C1290.14018,151.978288 1290.14018,141.980615 1278.98881,141.980615 Z" id="Path-Copy-20"></path>
                        <path d="M1155.98881,94.9894751 L1033.58819,94.9894751 C1022.43682,94.9894751 1022.43682,104.987149 1033.58819,104.987149 L1155.98881,104.987149 C1167.14018,104.987149 1167.14018,94.9894751 1155.98881,94.9894751 Z" id="Path-Copy-15"></path>
                        <path d="M718.404437,4.78784412 L570.061381,4.78784412 C558.910008,4.78784412 558.910008,14.7855177 570.061381,14.7855177 L718.405587,14.7855177 C729.55696,14.7855177 729.55696,4.78784412 718.404437,4.78784412 L718.404437,4.78784412 Z" id="Path"></path>
                        <path d="M373.404437,41.7878441 L225.061381,41.7878441 C213.910008,41.7878441 213.910008,51.7855177 225.061381,51.7855177 L373.405587,51.7855177 C384.55696,51.7855177 384.55696,41.7878441 373.404437,41.7878441 L373.404437,41.7878441 Z" id="Path-Copy-35"></path>
                        <path d="M2642.8881,104.995744 L2576.5146,104.995744 C2565.36322,104.995744 2565.36322,114.993418 2576.5146,114.993418 L2642.8881,114.993418 C2654.03947,114.993418 2654.03947,104.995744 2642.8881,104.995744 Z" id="Path-Copy-41"></path>
                    </g>
                    <g id="Group" transform="translate(738.563618, 633.156883)"></g>
                    <g id="Group-2" transform="translate(828.000000, 245.308012)">
                        <path d="M66.6078096,377.099892 C101.490208,329.65979 168.495049,308.611532 224.335866,327.550602 C290.283874,349.91696 337.463028,420.09313 407.034629,423.51927 C439.282419,425.10719 470.022583,411.534668 500.499401,400.899167 C530.97507,390.264813 587.047033,372.138648 638.082077,414.902252 C666.955474,440.492269 691.934699,457.077207 713.019751,464.657065 C738.30004,473.745068 782.868826,482.161922 846.726109,489.907627 L0,489.907627 C10.8387959,467.333067 25.58504,440.989394 44.2387322,410.876606 C46.5602174,407.129016 54.0165766,395.870111 66.6078096,377.099892 Z" id="Path" fill="#FFD686" fill-rule="nonzero"></path>
                        <path d="M178.337744,327.549453 C244.285751,349.915811 291.464905,420.091982 361.036506,423.518122 C370.790652,423.998057 380.4068,423.085262 389.920599,421.29182 C329.391306,408.605686 284.734062,348.032812 224.337016,327.549453 C203.142851,320.360759 180.342162,318.946213 158.29816,322.535394 C165.083053,323.678971 171.788597,325.328892 178.337744,327.549453 L178.337744,327.549453 Z" id="Path" fill="#F7CA6D" fill-rule="nonzero"></path>
                        <path d="M541.07306,390.017956 C570.80584,395.874773 592.082804,422.173615 592.082804,452.431347 L592.082804,489.907627 L834.979664,489.907627 C774.387058,476.953071 731.463957,465.665791 706.210361,456.045787 C687.708938,448.99793 664.99951,435.283418 638.082077,414.902252 C604.898201,387.095863 569.585709,385.036045 540.563618,389.919214 C540.733815,389.951363 540.902863,389.984659 541.07306,390.017956 Z" id="Path" fill="#F7CA6D" fill-rule="nonzero"></path>
                        <g id="Paraply" transform="translate(66.718369, 0.000000)">
                            <path d="M247.088103,410.876606 L198.877695,140.248428 C197.067623,129.262734 180.046742,132.055084 181.856814,143.043074 L223.861516,397.952316 C223.861516,397.952316 235.020044,404.748981 235.020044,404.748981 C235.020044,404.748981 247.088103,410.876606 247.088103,410.876606 Z" id="Path" fill="#00D4A9" fill-rule="nonzero"></path>
                            <path d="M247.088103,410.876606 L198.877695,140.248428 C197.067623,129.262734 180.046742,132.055084 181.856814,143.043074 L223.861516,397.952316 C223.861516,397.952316 235.020044,404.748981 235.020044,404.748981 C235.020044,404.748981 247.088103,410.876606 247.088103,410.876606 Z" id="Path-Copy-12" fill="url(#linearGradient-7)" fill-rule="nonzero"></path>
                            <g id="Group">
                                <path d="M397.19551,167.204023 C393.624817,145.523122 373.127541,130.838024 351.412434,134.401945 C329.697327,137.967013 314.989059,158.432001 318.558603,180.112902 C314.98791,158.432001 294.490634,143.746903 272.775527,147.310824 C251.06042,150.875892 236.352152,171.34088 239.921696,193.021781 C236.351003,171.34088 215.853727,156.655782 194.13862,160.219703 C172.423513,163.783623 157.715245,184.249759 161.284789,205.93066 C157.714095,184.249759 137.216819,169.564661 115.501713,173.128582 C93.786606,176.692502 79.0783385,197.158638 82.6478821,218.839539 C79.0771885,197.158638 58.5799125,182.47354 36.8648057,186.03746 C15.149699,189.602529 0.441431466,210.067517 4.01097504,231.748418 L2.67699613,231.967718 C-15.2259209,123.214173 58.5569128,20.5562639 167.482041,2.67465918 C276.407169,-15.2069455 379.227044,58.4596627 397.135711,167.213208 L397.19551,167.204023 Z" id="Path" fill="#00D4A9" fill-rule="nonzero"></path>
                                <g transform="translate(177.121189, 0.007245)" fill-rule="nonzero">
                                    <path d="M220.074321,167.196778 C219.931724,166.333353 219.753476,165.486004 219.559129,164.645543 C219.710927,165.498634 219.873075,166.34828 220.014522,167.205963 L220.074321,167.196778 Z" id="Path" fill="#FE5995"></path>
                                    <path d="M0,1.32749932 C76.1931956,10.1821889 141.865208,62.5525339 166.439169,136.518815 C168.93118,135.564685 171.555438,134.844782 174.291245,134.395848 C195.141565,130.973152 214.860304,144.381485 219.55798,164.646691 C201.035222,60.5007535 104.433299,-10.7225483 0,1.32749932 L0,1.32749932 Z" id="Path" fill="#00D4A9"></path>
                                    <path d="M0,1.32749932 C76.1931956,10.1821889 141.865208,62.5525339 166.439169,136.518815 C168.93118,135.564685 171.555438,134.844782 174.291245,134.395848 C195.141565,130.973152 214.860304,144.381485 219.55798,164.646691 C201.035222,60.5007535 104.433299,-10.7225483 0,1.32749932 L0,1.32749932 Z" id="Path-Copy-2" fill="#000000" opacity="0"></path>
                                </g>
                                <g transform="translate(77.580729, 1.706554)" id="Path">
                                    <path d="M89.9312117,0.963512585 C89.9277618,0.964660756 89.9231619,0.964660756 89.9197119,0.965808926 C89.9381116,0.962364415 89.9576613,0.960068074 89.976061,0.957771734 C89.9611113,0.958919904 89.9461615,0.961216245 89.9312117,0.963512585 L89.9312117,0.963512585 Z"></path>
                                    <path d="M89.976061,0.956623563 C89.9576613,0.960068074 89.9381116,0.962364415 89.9197119,0.964660756 C26.14517,11.4440113 -11.8812789,104.480253 3.35368024,210.436855 C4.10346839,212.581637 4.68995912,214.813681 5.07175308,217.131837 C1.50105952,195.450936 16.210477,176.134119 37.9255838,172.56905 C59.6406905,169.003981 80.1379665,182.542057 83.7075101,204.222958 C80.1368166,182.542057 94.846234,162.077069 116.561341,158.512 C138.276448,154.946932 158.773724,169.633178 162.343267,191.314079 C158.772574,169.633178 173.481991,150.316361 195.197098,146.751292 C214.284496,143.617935 232.425459,153.440532 238.963106,170.864017 C219.220218,66.0865854 153.567756,-9.44120692 89.976061,0.956623563 L89.976061,0.956623563 Z" fill="#ABEDD4"></path>
                                </g>
                                <g transform="translate(149.865467, 1.957053)" id="Path">
                                    <path d="M18.5331095,0.568344312 C18.4859603,0.576381504 18.441111,0.591307719 18.3939617,0.600493081 C18.5112599,0.582122356 18.628558,0.566047972 18.7458562,0.547677246 C18.6757073,0.556862609 18.6032584,0.556862609 18.5331095,0.568344312 Z"></path>
                                    <path d="M18.7458562,0.546529076 C18.628558,0.564899801 18.5112599,0.580974186 18.3939617,0.599344911 C-2.90600159,4.48130879 -6.13745051,93.0465752 10.9547293,199.676005 C9.84154692,179.650767 24.0024231,161.591196 44.2754526,158.26265 C65.9905594,154.697581 86.4878354,169.383828 90.057379,191.064728 C89.8331325,189.699553 89.6813349,188.338972 89.5985362,186.987575 C71.6231704,80.5211851 40.1826673,-2.3950833 18.7458562,0.546529076 Z" fill="#00D4A9" fill-rule="nonzero"></path>
                                    <path d="M247.330043,165.24697 C247.187445,164.383546 247.009198,163.536196 246.814851,162.696884 C246.966649,163.549974 247.128796,164.39962 247.270244,165.257303 L247.330043,165.24697 Z" fill="#5ED8F6" fill-rule="nonzero"></path>
                                </g>
                            </g>
                            <path d="M50.7876357,396.593567 C61.8872602,396.593567 61.9056599,379.371012 50.7876357,379.371012 C39.6880111,379.371012 39.6696114,396.593567 50.7876357,396.593567 Z" id="Path" fill="#E7A661" fill-rule="nonzero"></path>
                            <path d="M149.86547,464.657065 C160.965094,464.657065 160.983494,447.43451 149.86547,447.43451 C138.766995,447.43451 138.748595,464.657065 149.86547,464.657065 Z" id="Path" fill="#E7A661" fill-rule="nonzero"></path>
                            <path d="M179.871945,399.517918 C190.97157,399.517918 190.98997,382.295363 179.871945,382.295363 C168.772321,382.295363 168.753921,399.517918 179.871945,399.517918 Z" id="Path" fill="#E7A661" fill-rule="nonzero"></path>
                            <path d="M510.736665,450.631016 C521.83629,450.631016 521.85469,433.408461 510.736665,433.408461 C499.637041,433.408461 499.618641,450.631016 510.736665,450.631016 Z" id="Path" fill="#E7A661" fill-rule="nonzero"></path>
                            <path d="M450.707614,470.626363 C461.807239,470.626363 461.825638,453.403808 450.707614,453.403808 C439.60799,453.403808 439.58959,470.626363 450.707614,470.626363 Z" id="Path-Copy" fill="#E7A661" fill-rule="nonzero"></path>
                        </g>
                    </g>
                </g>
            </g>
        </g>
    </g>
</svg>