<?xml version="1.0" encoding="UTF-8"?>
<svg width="500px" height="500px" viewBox="0 0 500 500" version="1.1" xmlns="http://www.w3.org/2000/svg" xmlns:xlink="http://www.w3.org/1999/xlink">
    <title>Group 2</title>
    <defs>
        <circle id="path-1" cx="250" cy="250" r="250"></circle>
        <circle id="path-3" cx="250" cy="250" r="250"></circle>
        <filter x="-0.4%" y="-0.4%" width="100.8%" height="100.8%" filterUnits="objectBoundingBox" id="filter-4">
            <feOffset dx="-4" dy="-4" in="SourceAlpha" result="shadowOffsetInner1"></feOffset>
            <feComposite in="shadowOffsetInner1" in2="SourceAlpha" operator="arithmetic" k2="-1" k3="1" result="shadowInnerInner1"></feComposite>
            <feColorMatrix values="0 0 0 0 0   0 0 0 0 0   0 0 0 0 0  0 0 0 0.06 0" type="matrix" in="shadowInnerInner1"></feColorMatrix>
        </filter>
    </defs>
    <g id="Symbols" stroke="none" stroke-width="1" fill="none" fill-rule="evenodd">
        <g id="Component/Website/Fourth-(Desktop)" transform="translate(-1090.000000, -50.000000)">
            <g id="Group-2" transform="translate(1090.000000, 50.000000)">
                <mask id="mask-2" fill="white">
                    <use xlink:href="#path-1"></use>
                </mask>
                <g id="Oval-Copy-2" fill-rule="nonzero"></g>
                <g id="Group" mask="url(#mask-2)" fill-rule="nonzero">
                    <circle id="Oval-Copy-4" fill="#3ED69D" opacity="0.203204" cx="250" cy="250" r="250"></circle>
                    <g id="Oval-Copy-3" fill="black" fill-opacity="1">
                        <use filter="url(#filter-4)" xlink:href="#path-3"></use>
                    </g>
                    <g id="kert" transform="translate(259.424787, 306.424272) rotate(-7.000000) translate(-259.424787, -306.424272) translate(54.424787, 113.924272)">
                        <path d="M329.227455,175.35174 L336.421694,126.514309 C337.41947,119.499023 343.921032,114.623464 350.913474,115.623126 C357.918729,116.625998 362.78429,123.127011 361.784111,130.142297 L361.917842,149.567515 L329.227455,175.35174 Z" id="Path" fill="#F4AA73"></path>
                        <path d="M255.825231,252.956336 C251.198303,251.59243 247.80138,247.775101 246.879678,243.170718 L167.496401,243.323154 L130.450552,270.506585 L146.625579,292.985346 L269.24316,304.747824 L271.356428,257.532638 L255.825231,252.956336 Z" id="Path" fill="#FBBD80"></path>
                        <path d="M246.629833,240.643482 L246.629833,197.853767 L156.964496,197.853767 L156.964496,240.643482 C156.964496,246.336582 153.220833,251.349334 147.769098,252.955533 L132.237901,257.531836 L133.661694,270.491341 L151.391042,265.266783 C157.501021,263.465625 162.529141,259.521533 165.769111,254.398866 C168.87455,249.488807 174.785934,247.39401 180.368997,248.976139 C188.454509,251.268302 196.932404,252.536734 205.688973,252.536734 C209.077889,252.536734 212.515653,252.35381 215.904569,251.994381 C226.981007,250.819016 237.293498,247.786333 246.879678,243.169915 C246.71872,242.357188 246.629833,241.497126 246.629833,240.643482 L246.629833,240.643482 Z" id="Path" fill="#F4AA73"></path>
                        <path d="M327.92458,274.201966 L296.761287,265.018873 L204.977076,308.581199 L106.883492,271.639429 L83.5774872,282.094965 L99.3216929,385 L336.29517,385 C346.907154,385 355.509171,376.381724 355.509171,365.749683 L355.509171,311.138923 C355.509171,294.058819 344.278982,279.021364 327.92458,274.201966 L327.92458,274.201966 Z" id="Path" fill="#00D4A9"></path>
                        <path d="M271.355627,257.532638 C256.469061,280.187102 230.892835,295.164385 201.797165,295.164385 C177.659946,295.164385 155.945099,284.857274 140.745426,268.410183 C137.623171,265.031709 106.833043,265.018873 106.833043,265.018873 L75.6697496,274.201966 C59.3153469,279.021364 48.0843574,294.058819 48.0843574,311.138923 L48.0843574,365.749683 C48.0843574,376.380922 56.6871752,385 67.2983582,385 L99.3216929,385 L99.3216929,295.015157 C99.3216929,286.475507 104.936787,278.956378 113.114389,276.54708 L114.079333,276.263067 C133.889117,303.274004 165.775518,320.832276 201.797165,320.832276 C242.605095,320.832276 278.118244,298.305378 296.762087,265.019675 L271.355627,257.532638 Z" id="Path" fill="#00BB83"></path>
                        <path d="M140.745426,268.410183 C137.605553,265.01807 134.787596,261.412547 132.238702,257.532638 L106.833043,265.018873 C109.020783,268.924455 111.446357,272.671985 114.080134,276.262265 L140.745426,268.410183 Z" id="Path" fill="#00A674"></path>
                        <path d="M299.526392,68.894935 C295.054016,26.6050515 257.210586,-4.04590762 215.000484,0.434921789 L157.678795,6.51954314 C148.272791,7.51840306 140.694976,13.545259 137.085845,21.610752 L101.492617,89.8918529 L305.600336,126.324967 L299.526392,68.894935 Z" id="Path" fill="#7A4646"></path>
                        <path d="M133.551987,21.9870293 C108.929494,24.6009133 91.0832316,46.717838 93.6921844,71.3868698 L101.789708,147.959711 L152.805226,142.544206 L144.730926,66.191996 C144.272077,61.8547778 142.779416,57.6908557 140.377866,54.0524383 L140.377065,54.051636 C137.46942,49.6454202 135.9159,44.4850451 135.825412,39.2035232 C135.724513,33.3194761 136.144924,27.4322199 137.084243,21.6115543 L133.551987,21.9870293 Z" id="Path" fill="#70393C"></path>
                        <path d="M312.787368,133.576931 C311.079297,125.362211 302.854449,120.164128 294.525499,121.047457 L292.225648,121.292158 C281.678528,122.412164 272.221274,114.757448 271.095373,104.191997 L270.061561,94.4866085 C269.083003,85.3011088 261.73101,78.1069105 252.542819,77.3447282 L147.333472,68.6109218 C146.537493,68.5443311 145.755128,68.5523541 144.991981,68.62777 L141.147419,142.691829 L136.190569,155.4997 C143.981392,197.975716 170.978208,242.852206 214.556049,238.226963 C220.025401,237.6461 225.312975,237.554638 230.376329,235.990961 C265.658052,225.098173 290.041912,191.656824 288.934428,153.905535 L298.809691,152.856933 C308.144425,151.866096 314.75169,143.024782 312.787368,133.576931 L312.787368,133.576931 Z" id="Path" fill="#FFD18D"></path>
                        <path d="M123.981823,171.414868 C131.772646,213.890884 170.978208,243.859088 214.555248,239.233043 C219.992569,238.656192 225.339401,237.539394 230.37624,235.990158 C230.37624,235.987751 230.37624,235.990158 230.37624,235.990158 C191.484674,232.593232 159.097783,202.040956 154.830408,161.687015 L144.991981,68.6269677 C138.086024,69.3145364 132.775227,75.5459781 133.537573,82.7522108 L137.30526,118.379017 C138.423153,128.951688 130.77487,138.430026 120.222144,139.550835 L111.640146,140.461443 C103.311197,141.345574 96.3563913,148.155472 96.4041909,156.545895 C96.4596924,166.195925 104.770224,173.454307 114.105759,172.462668 L123.981823,171.414868 Z" id="Path" fill="#FBBD80"></path>
                        <path d="M166.893411,153.954476 C163.373167,154.328346 160.222084,151.77303 159.849719,148.249341 L159.174659,141.867869 C158.802294,138.344181 161.348786,135.184734 164.869031,134.810864 C168.389275,134.436994 171.540358,136.99231 171.912723,140.515999 L172.587783,146.89747 C172.960148,150.421159 170.413656,153.580605 166.893411,153.954476 Z" id="Path" fill="#70393C"></path>
                        <path d="M243.321796,145.841647 C239.801552,146.215518 236.650468,143.660201 236.278104,140.136512 L235.603044,133.755041 C235.230679,130.231352 237.777171,127.071906 241.297415,126.698036 C244.81766,126.324165 247.968743,128.879481 248.341108,132.40317 L249.016168,138.784642 C249.389333,142.308331 246.842842,145.467777 243.321796,145.841647 Z" id="Path" fill="#70393C"></path>
                        <path d="M157.819733,129.109741 C154.890467,129.421032 152.038076,127.666408 151.075534,124.750058 C149.958441,121.386829 151.776219,117.753225 155.136307,116.63723 L167.579683,112.499783 C170.914146,111.37737 174.560113,113.205003 175.6708,116.569034 C176.787092,119.932264 174.970114,123.565868 171.610027,124.681863 L159.166651,128.819309 C158.722216,128.966932 158.267371,129.062405 157.819733,129.109741 L157.819733,129.109741 Z" id="Path" fill="#7A4646"></path>
                        <path d="M246.998194,119.637019 C246.550556,119.684354 246.0853,119.686761 245.620846,119.635414 L232.588894,118.204918 C229.070251,117.819013 226.533369,114.650742 226.921749,111.127855 C227.303723,107.605771 230.46922,105.060885 233.981457,105.447592 L247.013408,106.878088 C250.532051,107.263992 253.068934,110.432264 252.680554,113.95515 C252.349029,117.008693 249.92746,119.32653 246.998194,119.637019 L246.998194,119.637019 Z" id="Path" fill="#7A4646"></path>
                        <path d="M221.959293,186.824589 C222.704823,193.872769 218.009028,197.075539 210.974144,197.822477 C203.939261,198.569416 197.229495,196.578115 196.483165,189.529934 C195.737635,182.481754 200.836224,176.16206 207.871108,175.415121 C214.906792,174.668183 221.213764,179.776408 221.959293,186.824589 L221.959293,186.824589 Z" id="Path" fill="#7A4646"></path>
                        <path d="M399.993499,70.8822249 L391.742225,80.5916247 L384.889119,104.626039 C382.60048,112.650615 379.80014,117.736377 375.96839,122.055944 L349.966147,151.363858 C337.46031,165.459416 330.552751,183.662736 330.552751,202.521532 L330.552751,240.971621 L367.701101,230.997463 L363.143041,195.608137 C362.351867,189.463344 363.805289,183.239925 367.235045,178.085166 L391.7166,141.293425 C397.418179,132.724891 401.487761,123.17194 403.717142,113.118354 L409.690187,86.1876471 C411.25652,79.1210141 406.70887,72.3752999 399.993499,70.8822249 L399.993499,70.8822249 Z" id="Path" fill="#FFD18D"></path>
                        <path d="M396.391574,70.6006187 C390.807711,70.9351766 386.213615,75.2025949 384.676912,80.5916247 L377.823806,104.625237 C375.535967,112.650615 372.735627,117.735574 368.903077,122.055142 L342.900834,151.363056 C330.395798,165.458614 323.487438,183.661933 323.487438,202.521532 L323.487438,230.996661 L336.296772,237.435898 L336.296772,202.521532 C336.296772,186.786881 342.044796,171.647534 352.477404,159.888265 L378.478046,130.58356 C383.844097,124.530229 387.446822,117.612021 390.211928,107.909039 L399.9951,70.8822249 C398.845976,70.6262922 397.645601,70.5252027 396.391574,70.6006187 Z" id="Path" fill="#FBBD80"></path>
                        <path d="M329.247474,374.014146 L336.295971,385 L372.964651,385 C380.68981,385 386.657249,378.200532 385.669082,370.524153 L371.005134,256.664553 L332.986333,246.896585 L329.247474,374.014146 Z" id="Path" fill="#00D4A9"></path>
                        <path d="M371.005134,256.66375 L367.699499,230.996661 L336.29517,230.996661 L323.485836,256.66375 L323.485836,372.166455 C323.485836,379.253948 329.221048,385 336.29517,385 L336.29517,256.66375 L371.005134,256.66375 Z" id="Path" fill="#00BB83"></path>
                        <polygon id="Path" fill="#00A674" points="323.486637 230.996661 336.295971 230.996661 336.295971 256.66375 323.486637 256.66375"></polygon>
                        <path d="M80.7707409,175.35174 L73.5765013,126.514309 C72.578725,119.499023 66.0771633,114.623464 59.0847212,115.623126 C52.0794666,116.625998 47.2139057,123.127011 48.2140843,130.142297 L48.0803535,149.567515 L80.7707409,175.35174 Z" id="Path" fill="#F4AA73"></path>
                        <path d="M67.0989631,151.363056 L41.09672,122.055142 C37.2641699,117.735574 34.4638298,112.650615 32.1759911,104.625237 L25.3228854,80.5908224 C23.7861817,75.2025949 19.1920864,70.9343743 13.6082227,70.5998164 C12.1684138,70.5139706 10.7862614,70.6615932 9.49139437,71.006581 L11.3484114,113.115948 C13.5785937,123.169533 17.647375,132.722485 23.3489539,141.291018 L47.830509,178.082759 C51.260265,183.237518 52.7136872,189.460937 51.922513,195.605731 L45.2664,237.800943 L86.512359,230.994254 L86.512359,202.519125 C86.512359,183.661933 79.6048,165.458614 67.0989631,151.363056 Z" id="Path" fill="#FFD18D"></path>
                        <path d="M53.4191775,170.967186 L28.9384232,134.177049 C24.0976866,126.889785 20.6759384,118.868418 18.7500539,110.154669 L9.49059358,71.0073833 C3.07791881,72.7363336 -1.21508187,79.3143677 0.308008468,86.1860425 L6.28185385,113.11675 C8.51123529,123.170335 12.5808174,132.723287 18.2823963,141.29182 L42.7647522,178.083561 C46.1945082,183.23832 47.6479303,189.461739 46.8567562,195.606533 L42.2986961,230.995056 L53.5352911,244.027571 L59.5611874,197.241614 C60.7439447,188.020814 58.5610087,178.687691 53.4191775,170.967186 L53.4191775,170.967186 Z" id="Path" fill="#FBBD80"></path>
                        <path d="M43.5743444,254.911534 L35.3935395,384.895701 C35.9300645,384.963897 36.4778004,384.999198 37.034345,384.999198 L73.7030251,384.999198 C80.7771471,384.999198 86.512359,379.253146 86.512359,372.165653 L86.512359,256.662948 L62.0107843,242.712606 L43.5743444,254.911534 Z" id="Path" fill="#00D4A9"></path>
                        <path d="M86.512359,230.996661 L55.2145342,230.996661 L38.9938624,256.66375 L24.329113,370.523351 C23.4130166,377.641331 28.4923867,384.008361 35.3935395,384.895701 L51.9088997,256.66375 L86.5131598,256.66375 L86.5131598,230.996661 L86.512359,230.996661 Z" id="Path" fill="#00BB83"></path>
                        <polygon id="Path" fill="#00A674" points="51.9088997 256.66375 55.2145342 230.996661 42.2986961 230.996661 38.9930616 256.66375"></polygon>
                    </g>
                </g>
            </g>
        </g>
    </g>
</svg>